<?xml version="1.0" encoding="utf-8"?>
<!-- Generator: Adobe Illustrator 19.1.0, SVG Export Plug-In . SVG Version: 6.00 Build 0)  -->
<!DOCTYPE svg PUBLIC "-//W3C//DTD SVG 1.1//EN" "http://www.w3.org/Graphics/SVG/1.1/DTD/svg11.dtd">
<svg version="1.1" xmlns="http://www.w3.org/2000/svg" xmlns:xlink="http://www.w3.org/1999/xlink" x="0px" y="0px"
	 viewBox="0 0 24 24" style="enable-background:new 0 0 24 24;" xml:space="preserve">
<style type="text/css">
	.st0{fill:#7C7C7C;}
</style>
<g id="Layer_2">
</g>
<g id="Layer_1">
</g>
<g id="Layer_3">
	<g>
		<path class="st0" d="M12.3,7.2l0.9,8.8c0,0.2,0.2,0.3,0.4,0.3c0.2,0,0.3-0.2,0.3-0.4L13,7.1c0-0.2-0.2-0.3-0.4-0.3
			S12.3,7,12.3,7.2z M19.1,19.3l-5.3-3.6c-0.1-0.1-0.2-0.1-0.3,0l-7,3.3c-0.2,0.1-0.2,0.3-0.2,0.5c0.1,0.2,0.3,0.2,0.5,0.2l6.8-3.2
			l5.2,3.5c0.2,0.1,0.4,0.1,0.5-0.1C19.3,19.7,19.2,19.5,19.1,19.3L19.1,19.3z"/>
		<path class="st0" d="M12.3,6.9L6,19.2c-0.1,0.2,0,0.4,0.1,0.5l6.3,3.6c0.1,0.1,0.2,0.1,0.3,0c0.1-0.1,0.2-0.2,0.2-0.3l0-18.3
			c0-0.2-0.2-0.3-0.3-0.3c-0.2,0-0.3,0.2-0.3,0.3l0,2.4c0,0.1,0,0.1,0,0.2l6.1,12.3l-5.9,3.2c-0.2,0.1-0.2,0.3-0.1,0.5
			c0.1,0.2,0.3,0.2,0.5,0.1l6.2-3.3c0.2-0.1,0.2-0.3,0.1-0.5L12.9,6.9l0-2.3c0-0.1,0-0.2-0.1-0.2c-0.1-0.1-0.2-0.1-0.2-0.1
			c-0.1,0-0.2,0-0.2,0.1c-0.1,0.1-0.1,0.2-0.1,0.2l0,17.7l-5.5-3.2l6.1-12c0.1-0.2,0-0.4-0.2-0.5C12.6,6.7,12.4,6.7,12.3,6.9
			L12.3,6.9z M10.4,11.9l2.1,1.2c0.1,0.1,0.2,0.1,0.4,0l2.1-1.3c0.2-0.1,0.2-0.3,0.1-0.5c-0.1-0.2-0.3-0.2-0.5-0.1l-1.9,1.2
			l-1.9-1.1c-0.2-0.1-0.4,0-0.5,0.1C10.2,11.6,10.3,11.8,10.4,11.9L10.4,11.9z M8.4,15.6l4.1,2.5c0.1,0.1,0.2,0.1,0.3,0l4.2-2.2
			c0.2-0.1,0.2-0.3,0.1-0.5c-0.1-0.2-0.3-0.2-0.5-0.1l-4,2.1L8.8,15c-0.2-0.1-0.4,0-0.5,0.1C8.2,15.3,8.2,15.5,8.4,15.6L8.4,15.6z"
			/>
		<path class="st0" d="M9.7,4.3c0.1-0.9,0.5-1.7,1.1-2.1c0.5-0.5,1.2-0.7,1.9-0.7c0.6,0,1.2,0.2,1.7,0.7c0.5,0.5,0.9,1.1,1.1,2.2
			c0,0.2,0.2,0.3,0.4,0.3c0.2,0,0.3-0.2,0.3-0.4c-0.2-1.1-0.7-2-1.3-2.5c-0.6-0.6-1.4-0.8-2.2-0.8c-0.8,0-1.7,0.3-2.4,0.9
			C9.7,2.2,9.2,3.1,9.1,4.2c0,0.2,0.1,0.4,0.3,0.4C9.6,4.6,9.7,4.5,9.7,4.3L9.7,4.3z"/>
		<ellipse class="st0" cx="12.6" cy="4.4" rx="0.4" ry="0.4"/>
		<path class="st0" d="M13,4.4h-0.2c0,0.2-0.1,0.3-0.3,0.3c-0.1,0-0.3-0.1-0.3-0.3c0-0.2,0.1-0.3,0.3-0.3c0.1,0,0.3,0.1,0.3,0.3H13
			h0.2c0-0.3-0.3-0.6-0.6-0.6c-0.3,0-0.6,0.3-0.6,0.6C12,4.7,12.3,5,12.6,5c0.3,0,0.6-0.3,0.6-0.6H13z"/>
	</g>
</g>
</svg>
