<?xml version="1.0" encoding="utf-8"?>
<!-- Generator: Adobe Illustrator 19.1.0, SVG Export Plug-In . SVG Version: 6.00 Build 0)  -->
<!DOCTYPE svg PUBLIC "-//W3C//DTD SVG 1.1//EN" "http://www.w3.org/Graphics/SVG/1.1/DTD/svg11.dtd">
<svg version="1.1" id="Layer_1" xmlns="http://www.w3.org/2000/svg" xmlns:xlink="http://www.w3.org/1999/xlink" x="0px" y="0px"
	 viewBox="-147 449 128 128" style="enable-background:new -147 449 128 128;" xml:space="preserve">
<style type="text/css">
	.st0{opacity:0.4;fill:#D1D1D1;enable-background:new    ;}
	.st1{fill:url(#SVGID_1_);stroke:#D3D3D3;stroke-miterlimit:10;}
	.st2{fill:#3F3F3F;}
</style>
<path class="st0" d="M-28.6,576.9h-104.2c-5.3,0-9.6-4.3-9.6-9.6V463.1c0-5.3,4.3-9.6,9.6-9.6h104.2c5.3,0,9.6,4.3,9.6,9.6v104.2
	C-19,572.6-23.3,576.9-28.6,576.9z"/>
<linearGradient id="SVGID_1_" gradientUnits="userSpaceOnUse" x1="-85" y1="455.5" x2="-85" y2="578.5" gradientTransform="matrix(1 0 0 -1 0 1028)">
	<stop  offset="0" style="stop-color:#F2F2DF"/>
	<stop  offset="0.1919" style="stop-color:#F5F5E6"/>
	<stop  offset="1" style="stop-color:#FFFFFF"/>
</linearGradient>
<path class="st1" d="M-23.5,562.9c0,5.3-4.3,9.6-9.6,9.6h-103.7c-5.3,0-9.6-4.3-9.6-9.6V459.1c0-5.3,4.3-9.6,9.6-9.6h103.7
	c5.3,0,9.6,4.3,9.6,9.6V562.9z"/>
<g>
	<path class="st2" d="M-86.4,490.9l-0.2,0l3.5,34.9c0.1,0.8,0.8,1.5,1.6,1.5l0.2,0c0.8-0.1,1.5-0.8,1.5-1.6l0-0.2l-3.5-34.9
		c-0.1-0.8-0.8-1.5-1.6-1.5l-0.2,0c-0.8,0.1-1.5,0.8-1.5,1.6l0,0.2L-86.4,490.9l0.2,0l0-0.1c0-0.6,0.4-1,1-1.1l0.1,0
		c0.6,0,1,0.4,1.1,1l3.5,34.9l0,0.1c0,0.6-0.4,1-1,1.1l-0.1,0c-0.6,0-1-0.4-1.1-1l-3.5-34.9L-86.4,490.9z M-59.6,538.9l0.1-0.2
		l-21.1-14.4c-0.3-0.2-0.6-0.3-0.9-0.3c-0.2,0-0.5,0.1-0.7,0.2l-27.7,13.2c-0.6,0.3-0.9,0.9-0.9,1.5c0,0.2,0.1,0.5,0.2,0.7
		c0.3,0.6,0.9,0.9,1.5,0.9c0.2,0,0.5-0.1,0.7-0.2l26.8-12.8l20.4,13.9c0.3,0.2,0.6,0.3,0.9,0.3c0.5,0,1-0.2,1.3-0.7
		c0.2-0.3,0.3-0.6,0.3-0.9c0-0.5-0.2-1-0.7-1.3L-59.6,538.9l0.2-0.1l0,0l-0.1-0.1L-59.6,538.9l-0.2,0.1l0,0l0.1,0.1
		c0.3,0.2,0.5,0.6,0.5,0.9c0,0.2-0.1,0.4-0.2,0.6c-0.2,0.3-0.6,0.5-0.9,0.5c-0.2,0-0.4-0.1-0.6-0.2L-81.5,527l-0.2,0l-26.9,12.8
		c-0.2,0.1-0.3,0.1-0.5,0.1c-0.4,0-0.8-0.2-1-0.6c-0.1-0.2-0.1-0.3-0.1-0.5c0-0.4,0.2-0.8,0.6-1l27.7-13.2c0.2-0.1,0.3-0.1,0.5-0.1
		c0.2,0,0.4,0.1,0.6,0.2l21.1,14.4L-59.6,538.9l-0.2,0.1L-59.6,538.9z"/>
	<path class="st2" d="M-86.4,489.7l-0.2-0.1l-24.8,48.7c-0.1,0.2-0.2,0.5-0.2,0.7c0,0.6,0.3,1.1,0.8,1.4l24.8,14.3
		c0.3,0.1,0.5,0.2,0.8,0.2c0.3,0,0.6-0.1,0.8-0.2c0.5-0.3,0.8-0.8,0.8-1.4h-0.2l0.2,0l0,0h-0.2l0.2,0l-0.2,0l0.2,0l0,0l-0.2,0l0.2,0
		l0,0l-0.1-72.6c0-0.9-0.7-1.6-1.6-1.6h0l0,0c-0.9,0-1.6,0.7-1.6,1.6l-0.1,9.4l0,0c0,0.2,0.1,0.5,0.2,0.7l24.1,48.5l-23.3,12.5
		c-0.5,0.3-0.9,0.8-0.9,1.4c0,0.3,0.1,0.5,0.2,0.8c0.3,0.5,0.8,0.9,1.4,0.9c0.3,0,0.5-0.1,0.8-0.2l24.7-13.3
		c0.5-0.3,0.9-0.8,0.9-1.4c0-0.2-0.1-0.5-0.2-0.7l-24.7-49.5l0.1-9v0l0,0c0-0.4-0.2-0.8-0.5-1.1c-0.3-0.3-0.7-0.5-1.1-0.5h0l0,0
		c-0.4,0-0.8,0.2-1.1,0.5c-0.3,0.3-0.5,0.7-0.5,1.1v0l0,0l0.2,0l-0.3,0l0,69.8l-21.1-12.1l24.1-47.3c0.1-0.2,0.2-0.5,0.2-0.7
		c0-0.6-0.3-1.2-0.9-1.4c-0.2-0.1-0.5-0.2-0.7-0.2c-0.6,0-1.2,0.3-1.4,0.9L-86.4,489.7l0.2-0.1l0,0c0-0.1-0.1-0.1-0.2-0.1
		c-0.1,0-0.2,0.1-0.2,0.1L-86.4,489.7l-0.2,0.1l0,0c0,0.1,0.1,0.1,0.2,0.1c0.1,0,0.2-0.1,0.2-0.1c0.2-0.4,0.6-0.6,1-0.6
		c0.2,0,0.3,0,0.5,0.1c0.4,0.2,0.6,0.6,0.6,1c0,0.2,0,0.3-0.1,0.5l-24.2,47.6c-0.1,0.1,0,0.3,0.1,0.3l21.7,12.5l0.2,0l0.1-0.2
		l0-70.2l0,0l-0.2,0l0.2,0l0,0l-0.2,0l0.2,0l-0.2,0h0.2l0,0l-0.2,0h0.2c0-0.3,0.1-0.6,0.3-0.8c0.2-0.2,0.5-0.3,0.8-0.3l0,0h0
		c0.3,0,0.6,0.1,0.8,0.3c0.2,0.2,0.3,0.5,0.3,0.8l0,0v0l-0.1,9.1l0,0.1l24.7,49.6c0.1,0.2,0.1,0.3,0.1,0.5c0,0.4-0.2,0.8-0.6,1
		l-24.7,13.3c-0.2,0.1-0.3,0.1-0.5,0.1c-0.4,0-0.8-0.2-1-0.6c-0.1-0.2-0.1-0.3-0.1-0.5c0-0.4,0.2-0.8,0.6-1l23.6-12.6
		c0.1-0.1,0.2-0.2,0.1-0.3l-24.3-48.7c-0.1-0.2-0.1-0.3-0.1-0.5l0,0l0.1-9.4c0-0.6,0.5-1.1,1.1-1.1l0,0h0c0.6,0,1.1,0.5,1.1,1.1
		l0.1,72.6l0.3,0l-0.2,0l0,0v0c0,0.4-0.2,0.8-0.6,1c-0.2,0.1-0.4,0.1-0.6,0.1c-0.2,0-0.4,0-0.6-0.1l-24.8-14.3
		c-0.4-0.2-0.6-0.6-0.6-1c0-0.2,0-0.3,0.1-0.5l24.8-48.7L-86.4,489.7l-0.2,0.1L-86.4,489.7z M-93.8,509.3l-0.1,0.2l8.3,4.8
		c0.2,0.1,0.5,0.2,0.8,0.2c0.3,0,0.6-0.1,0.8-0.2l8.4-5.1c0.5-0.3,0.8-0.8,0.8-1.4c0-0.3-0.1-0.6-0.2-0.8c-0.3-0.5-0.8-0.8-1.4-0.8
		c-0.3,0-0.6,0.1-0.8,0.2l-7.5,4.6l-7.4-4.3c-0.3-0.1-0.5-0.2-0.8-0.2c-0.6,0-1.1,0.3-1.4,0.8l0,0.2l0.1,0.2l0.2,0l0.2-0.1l0,0l0,0
		l0,0l0,0l0,0l0,0l-0.2-0.1l0.2,0.1l0,0l-0.2-0.1l0.2,0.1l-0.2-0.1l0.2,0.2l0,0l-0.2-0.1l0.2,0.2l-0.2-0.2l0.1,0.2l0,0l-0.2-0.2
		l0.1,0.2l-0.1-0.2v0.2l0.1,0l-0.1-0.2v0.2v-0.2l-0.1,0.2l0.1,0v-0.2l-0.1,0.2l0.1-0.2l-0.2,0.1l0.1,0.1l0.1-0.2l-0.2,0.1l0.2-0.1
		h-0.2l0,0.1l0.2-0.1h-0.2h0.2l-0.2-0.1l0,0.1h0.2l-0.2-0.1l0.1,0.1l-0.1-0.1l0,0l0.1,0.1l-0.1-0.1c0,0-0.2,0.4-0.2,0.9
		c0,0.4,0.2,1,0.8,1.3c0.1,0.1,0.2,0,0.3,0c0.1-0.1,0.1-0.2,0.1-0.3l0,0L-93.8,509.3l-0.1,0.2L-93.8,509.3l-0.2,0.1l0,0L-93.8,509.3
		l0.1-0.2c-0.4-0.3-0.5-0.6-0.5-0.9c0-0.2,0-0.4,0.1-0.5l0.1-0.2l0,0l0,0l0,0l0-0.1l0-0.1l-0.1-0.1l-0.1,0l-0.1,0l-0.1,0.1l0,0.1
		c-0.1,0.1,0,0.3,0.1,0.3c0.1,0.1,0.3,0,0.3-0.1c0.2-0.4,0.6-0.6,1-0.6c0.2,0,0.4,0,0.6,0.1l7.6,4.4l0.3,0l7.7-4.7
		c0.2-0.1,0.4-0.2,0.6-0.2c0.4,0,0.7,0.2,0.9,0.5c0.1,0.2,0.2,0.4,0.2,0.6c0,0.4-0.2,0.7-0.5,0.9l-8.4,5.1c-0.2,0.1-0.4,0.2-0.6,0.2
		c-0.2,0-0.4,0-0.6-0.1l-8.3-4.8c-0.1-0.1-0.2,0-0.3,0c-0.1,0.1-0.1,0.2-0.1,0.3L-93.8,509.3z M-101.9,524.2l-0.1,0.2l16.3,9.7
		c0.3,0.2,0.5,0.2,0.8,0.2c0.3,0,0.5-0.1,0.8-0.2l16.5-8.8c0.5-0.3,0.9-0.8,0.9-1.4c0-0.3-0.1-0.5-0.2-0.8c-0.3-0.5-0.8-0.9-1.4-0.9
		c-0.3,0-0.5,0.1-0.8,0.2l-15.7,8.4l-15.5-9.3c-0.3-0.2-0.5-0.2-0.8-0.2c-0.5,0-1.1,0.3-1.4,0.8c-0.2,0.3-0.2,0.5-0.2,0.8
		c0,0.5,0.3,1.1,0.8,1.4c0.1,0.1,0.2,0,0.3,0s0.1-0.2,0.1-0.3l0,0L-101.9,524.2l-0.1,0.2L-101.9,524.2l-0.2,0.1l0,0L-101.9,524.2
		l0.1-0.2c-0.3-0.2-0.5-0.6-0.5-1c0-0.2,0.1-0.4,0.2-0.6c0.2-0.3,0.6-0.5,1-0.5c0.2,0,0.4,0.1,0.6,0.2l15.6,9.3l0.2,0l15.8-8.5
		c0.2-0.1,0.3-0.1,0.5-0.1c0.4,0,0.8,0.2,1,0.6c0.1,0.2,0.1,0.3,0.1,0.5c0,0.4-0.2,0.8-0.6,1l-16.5,8.8c-0.2,0.1-0.3,0.1-0.5,0.1
		c-0.2,0-0.4-0.1-0.6-0.2l-16.3-9.7c-0.1-0.1-0.2,0-0.3,0s-0.1,0.2-0.1,0.3L-101.9,524.2z"/>
	<path class="st2" d="M-96.5,479.2l0.2,0c0.4-3.7,2-6.4,4.1-8.3c2.1-1.9,4.7-2.9,7.3-2.9v-0.2l0,0.2l0,0v-0.2l0,0.2l0,0
		c2.4,0,4.7,0.8,6.6,2.5c1.9,1.7,3.6,4.5,4.3,8.4c0.2,0.8,0.8,1.3,1.6,1.3c0.1,0,0.2,0,0.3,0c0.8-0.2,1.3-0.8,1.3-1.6
		c0-0.1,0-0.2,0-0.3c-0.9-4.5-2.8-7.9-5.4-10.2c-2.5-2.3-5.7-3.4-8.8-3.4l0,0l0,0c-3.4,0-6.8,1.3-9.5,3.7c-2.7,2.4-4.6,6-5.1,10.4
		l0,0.2c0,0.8,0.6,1.5,1.4,1.6l0.2,0c0.8,0,1.5-0.6,1.6-1.4l0-0.1l0,0L-96.5,479.2l0.2,0L-96.5,479.2l-0.2,0.1l0,0L-96.5,479.2
		l-0.2,0c-0.1,0.6-0.5,1-1.1,1l-0.1,0c-0.6-0.1-1-0.5-1-1.1l0-0.1c0.5-4.3,2.4-7.7,5-10c2.6-2.3,5.9-3.6,9.2-3.6l0,0l0,0
		c3,0,6,1,8.4,3.2c2.5,2.2,4.3,5.5,5.2,9.9l0,0.2c0,0.5-0.4,1-0.9,1.1l-0.2,0c-0.5,0-1-0.4-1.1-0.9c-0.8-4-2.5-6.9-4.5-8.7
		c-2-1.8-4.5-2.7-7-2.7l0,0.3l0-0.2l0,0c-2.7,0-5.5,1.1-7.7,3c-2.2,2-3.8,4.9-4.3,8.7l0,0.1L-96.5,479.2z"/>
	<path class="st2" d="M-83,479.7l0.2,0c0-1.4-1.1-2.6-2.5-2.6h0c-1.4,0-2.5,1.2-2.5,2.6v0c0,1.4,1.1,2.6,2.5,2.6h0
		c1.4,0,2.5-1.2,2.5-2.6v0L-83,479.7l-0.3,0c0,1.1-0.9,2.1-2,2.1h0c-1.1,0-2-0.9-2-2.1v0c0-1.1,0.9-2.1,2-2.1h0c1.1,0,2,0.9,2,2.1v0
		L-83,479.7z"/>
	<path class="st2" d="M-83.9,479.7l0.2,0c0-0.9-0.7-1.6-1.6-1.6h0c-0.9,0-1.6,0.7-1.6,1.6v0c0,0.9,0.7,1.6,1.6,1.6h0
		c0.9,0,1.6-0.7,1.6-1.6v0L-83.9,479.7l-0.3,0c0,0.6-0.5,1.1-1.1,1.1h0c-0.6,0-1.1-0.5-1.1-1.1v0c0-0.6,0.5-1.1,1.1-1.1h0
		c0.6,0,1.1,0.5,1.1,1.1v0L-83.9,479.7z"/>
</g>
</svg>
